# xmcd
#
# Track frame offsets:
#	150
#	9017
#	22528
#	36804
#	51498
#	65588
#	92090
#	104745
#	118500
#	132463
#	148747
#	192366
#	204492
#	216149
#	228345
#	258795
#	278711
#	310927
#
# Disc length: 4654
#
# Revision: 2
# Processed by: cddbd v1.5.1PL0 Copyright (c) Steve Scherf et al.
# Submitted via: NeoAudio 9.9.9
# Normalized: r1:DSWAP,DSETVAR1
#
DISCID=fd122c12
DTITLE=Various Artist - Jazz in Paris
DYEAR=2003
DGENRE=Jazz
TTITLE0=Les Blue Stars - Move
TTITLE1=Maurice Meunier - Crazy rhythm
TTITLE2=Bernard Peiffer - Caravan
TTITLE3=Django Reinhardt - Nuages
TTITLE4=Michel Legrand - La vie en rose
TTITLE5=Chet Baker - You go to my head
TTITLE6=Miles Davis - Générique (Ascenseur pour l'échafaud)
TTITLE7=Dizzy Gillespie - Moon nocturne
TTITLE8=Hubert Rostaing - Cherokee
TTITLE9=Henri Salvador - Stompin' at the Savoy
TTITLE10=Lionel Hampton - Red ribbon
TTITLE11=Louis Armstrong - Saint Louis Blues
TTITLE12=Henri Crolla - I'm in the mood for love
TTITLE13=Sidney Bechet - On the sunny side of the street
TTITLE14=Oscar Peterson and Stephane Grapelli - I won't dance
TTITLE15=Barney Wilen - Swing
TTITLE16=Art Blakey - A night in Tunisia
TTITLE17=Bill Coleman - Saint Louis Blues
EXTD=YEAR: 2003
EXTT0=
EXTT1=
EXTT2=
EXTT3=
EXTT4=
EXTT5=
EXTT6=
EXTT7=
EXTT8=
EXTT9=
EXTT10=
EXTT11=
EXTT12=
EXTT13=
EXTT14=
EXTT15=
EXTT16=
EXTT17=
PLAYORDER=
